ffmpeg version git-2026-04-19-de18feb Copyright (c) 2000-2026 the FFmpeg developers
  built with gcc 9 (Ubuntu 9.4.0-1ubuntu1~20.04.2)
  configuration: --enable-shared --enable-gpl --enable-libx264
  libavutil      60. 30.100 / 60. 30.100
  libavcodec     62. 30.100 / 62. 30.100
  libavformat    62. 13.102 / 62. 13.102
  libavdevice    62.  4.100 / 62.  4.100
  libavfilter    11. 15.101 / 11. 15.101
  libswscale      9.  7.100 /  9.  7.100
  libswresample   6.  4.100 /  6.  4.100
[in#0/x11grab @ 0x563ce777cc40] Stream #0: not enough frames to estimate rate; consider increasing probesize
Input #0, x11grab, from ':0.0+0,0':
  Duration: N/A, start: 1777362160.324924, bitrate: 3678192 kb/s
  Stream #0:0: Video: rawvideo (BGR[0] / 0x524742), bgr0, 2870x1602, 3678192 kb/s, 25 fps, 1000k tbr, 1000k tbn, start 1777362160.324924
Stream mapping:
  Stream #0:0 -> #0:0 (rawvideo (native) -> h264 (libx264))
[libx264 @ 0x563ce778af00] using cpu capabilities: MMX2 SSE2Fast SSSE3 SSE4.2 AVX FMA3 BMI2 AVX2
[libx264 @ 0x563ce778af00] profile High, level 5.0
[libx264 @ 0x563ce778af00] 264 - core 155 r2917 0a84d98 - H.264/MPEG-4 AVC codec - Copyleft 2003-2018 - http://www.videolan.org/x264.html - options: cabac=1 ref=1 deblock=1:0:0 analyse=0x3:0x113 me=hex subme=2 psy=1 psy_rd=1.00:0.00 mixed_ref=0 me_range=16 chroma_me=1 trellis=0 8x8dct=1 cqm=0 deadzone=21,11 fast_pskip=1 chroma_qp_offset=0 threads=6 lookahead_threads=2 sliced_threads=0 nr=0 decimate=1 interlaced=0 bluray_compat=0 constrained_intra=0 bframes=3 b_pyramid=2 b_adapt=1 b_bias=0 direct=1 weightb=1 open_gop=0 weightp=1 keyint=250 keyint_min=25 scenecut=40 intra_refresh=0 rc_lookahead=10 rc=crf mbtree=1 crf=23.0 qcomp=0.60 qpmin=0 qpmax=69 qpstep=4 ip_ratio=1.40 aq=1:1.00
Output #0, matroska, to '/home/lmy/catkin_ws/recordings_tmp/tennis_pickup_screen_20260428_004209_screen.mkv':
  Metadata:
    encoder         : Lavf62.13.102
  Stream #0:0: Video: h264 (H264 / 0x34363248), yuv420p(tv, progressive), 2870x1602, q=2-31, 25 fps, 1k tbn
    Metadata:
      encoder         : Lavc62.30.100 libx264
    Side data:
      CPB properties: bitrate max/min/avg: 0/0/0 buffer size: 0 vbv_delay: N/A
frame=    0 fps=0.0 q=0.0 size=       0KiB time=N/A bitrate=N/A speed=N/A elapsed=0:00:00.50    frame=    0 fps=0.0 q=0.0 size=       0KiB time=N/A bitrate=N/A dup=0 drop=4 speed=N/A elapsed=0:00:01.00    frame=    0 fps=0.0 q=0.0 size=       0KiB time=N/A bitrate=N/A dup=0 drop=11 speed=N/A elapsed=0:00:01.50    frame=    0 fps=0.0 q=0.0 size=       0KiB time=N/A bitrate=N/A dup=0 drop=16 speed=N/A elapsed=0:00:02.00    frame=    7 fps=2.8 q=25.0 size=       1KiB time=00:00:00.64 bitrate=   7.4kbits/s dup=0 drop=17 speed=0.256x elapsed=0:00:02.50    frame=   27 fps=9.0 q=28.0 size=       1KiB time=00:00:01.80 bitrate=   2.6kbits/s dup=0 drop=20 speed= 0.6x elapsed=0:00:03.00    frame=   48 fps= 14 q=28.0 size=       1KiB time=00:00:02.88 bitrate=   1.6kbits/s dup=0 drop=25 speed=0.822x elapsed=0:00:03.50    frame=   60 fps= 15 q=28.0 size=       1KiB time=00:00:03.32 bitrate=   1.4kbits/s dup=0 drop=25 speed=0.829x elapsed=0:00:04.00    frame=   73 fps= 16 q=28.0 size=       1KiB time=00:00:03.88 bitrate=   1.2kbits/s dup=0 drop=25 speed=0.862x elapsed=0:00:04.50    frame=   85 fps= 17 q=28.0 size=       1KiB time=00:00:04.36 bitrate=   1.1kbits/s dup=0 drop=25 speed=0.871x elapsed=0:00:05.00    frame=   98 fps= 18 q=28.0 size=       1KiB time=00:00:04.88 bitrate=   1.0kbits/s dup=0 drop=25 speed=0.887x elapsed=0:00:05.50    frame=  110 fps= 18 q=28.0 size=     236KiB time=00:00:05.36 bitrate= 360.3kbits/s dup=0 drop=25 speed=0.893x elapsed=0:00:06.00    frame=  123 fps= 19 q=28.0 size=     236KiB time=00:00:05.88 bitrate= 328.4kbits/s dup=0 drop=25 speed=0.904x elapsed=0:00:06.50    frame=  135 fps= 19 q=28.0 size=     236KiB time=00:00:06.32 bitrate= 305.6kbits/s dup=0 drop=25 speed=0.902x elapsed=0:00:07.00    frame=  148 fps= 20 q=28.0 size=     236KiB time=00:00:06.84 bitrate= 282.3kbits/s dup=0 drop=25 speed=0.911x elapsed=0:00:07.50    frame=  160 fps= 20 q=28.0 size=     236KiB time=00:00:07.36 bitrate= 262.4kbits/s dup=0 drop=25 speed=0.919x elapsed=0:00:08.00    frame=  173 fps= 20 q=28.0 size=     236KiB time=00:00:07.88 bitrate= 245.1kbits/s dup=0 drop=25 speed=0.927x elapsed=0:00:08.50    frame=  185 fps= 21 q=28.0 size=     236KiB time=00:00:08.32 bitrate= 232.1kbits/s dup=0 drop=25 speed=0.924x elapsed=0:00:09.00    frame=  197 fps= 21 q=28.0 size=     236KiB time=00:00:08.84 bitrate= 218.4kbits/s dup=0 drop=25 speed=0.93x elapsed=0:00:09.50    frame=  210 fps= 21 q=28.0 size=     236KiB time=00:00:09.32 bitrate= 207.2kbits/s dup=0 drop=25 speed=0.931x elapsed=0:00:10.00    frame=  223 fps= 21 q=28.0 size=     236KiB time=00:00:09.88 bitrate= 195.5kbits/s dup=0 drop=25 speed=0.94x elapsed=0:00:10.50    frame=  235 fps= 21 q=28.0 size=     256KiB time=00:00:10.32 bitrate= 203.2kbits/s dup=0 drop=25 speed=0.938x elapsed=0:00:11.00    frame=  248 fps= 22 q=28.0 size=     256KiB time=00:00:10.88 bitrate= 192.8kbits/s dup=0 drop=25 speed=0.946x elapsed=0:00:11.50    frame=  260 fps= 22 q=28.0 size=     256KiB time=00:00:11.32 bitrate= 185.3kbits/s dup=0 drop=25 speed=0.943x elapsed=0:00:12.00    frame=  273 fps= 22 q=28.0 size=     256KiB time=00:00:11.84 bitrate= 177.1kbits/s dup=0 drop=25 speed=0.947x elapsed=0:00:12.50    frame=  285 fps= 22 q=28.0 size=     256KiB time=00:00:12.36 bitrate= 169.7kbits/s dup=0 drop=25 speed=0.95x elapsed=0:00:13.00    frame=  298 fps= 22 q=28.0 size=     256KiB time=00:00:12.84 bitrate= 163.3kbits/s dup=0 drop=25 speed=0.951x elapsed=0:00:13.50    frame=  310 fps= 22 q=28.0 size=     256KiB time=00:00:13.32 bitrate= 157.4kbits/s dup=0 drop=25 speed=0.951x elapsed=0:00:14.00    frame=  323 fps= 22 q=28.0 size=     256KiB time=00:00:13.84 bitrate= 151.5kbits/s dup=0 drop=25 speed=0.954x elapsed=0:00:14.50    frame=  335 fps= 22 q=28.0 size=     256KiB time=00:00:14.36 bitrate= 146.0kbits/s dup=0 drop=25 speed=0.957x elapsed=0:00:15.00    frame=  348 fps= 22 q=28.0 size=     256KiB time=00:00:14.88 bitrate= 140.9kbits/s dup=0 drop=25 speed=0.959x elapsed=0:00:15.51    frame=  360 fps= 22 q=28.0 size=     256KiB time=00:00:15.32 bitrate= 136.9kbits/s dup=0 drop=25 speed=0.957x elapsed=0:00:16.01    frame=  373 fps= 23 q=28.0 size=     256KiB time=00:00:15.88 bitrate= 132.1kbits/s dup=0 drop=25 speed=0.962x elapsed=0:00:16.51    frame=  385 fps= 23 q=28.0 size=     512KiB time=00:00:16.36 bitrate= 256.4kbits/s dup=0 drop=25 speed=0.962x elapsed=0:00:17.01    frame=  398 fps= 23 q=28.0 size=     512KiB time=00:00:16.84 bitrate= 249.1kbits/s dup=0 drop=25 speed=0.962x elapsed=0:00:17.51    frame=  410 fps= 23 q=28.0 size=     512KiB time=00:00:17.32 bitrate= 242.2kbits/s dup=0 drop=25 speed=0.962x elapsed=0:00:18.01    frame=  423 fps= 23 q=28.0 size=     512KiB time=00:00:17.84 bitrate= 235.1kbits/s dup=0 drop=25 speed=0.964x elapsed=0:00:18.51    frame=  436 fps= 23 q=28.0 size=     512KiB time=00:00:18.36 bitrate= 228.4kbits/s dup=0 drop=25 speed=0.966x elapsed=0:00:19.01    frame=  448 fps= 23 q=28.0 size=     512KiB time=00:00:18.88 bitrate= 222.2kbits/s dup=0 drop=25 speed=0.968x elapsed=0:00:19.51    frame=  460 fps= 23 q=28.0 size=     512KiB time=00:00:19.32 bitrate= 217.1kbits/s dup=0 drop=25 speed=0.965x elapsed=0:00:20.01    frame=  473 fps= 23 q=28.0 size=     512KiB time=00:00:19.88 bitrate= 211.0kbits/s dup=0 drop=25 speed=0.969x elapsed=0:00:20.51    frame=  486 fps= 23 q=28.0 size=     512KiB time=00:00:20.40 bitrate= 205.6kbits/s dup=0 drop=25 speed=0.971x elapsed=0:00:21.01    frame=  498 fps= 23 q=28.0 size=     512KiB time=00:00:20.84 bitrate= 201.3kbits/s dup=0 drop=25 speed=0.969x elapsed=0:00:21.51    frame=  510 fps= 23 q=28.0 size=     512KiB time=00:00:21.32 bitrate= 196.7kbits/s dup=0 drop=25 speed=0.968x elapsed=0:00:22.01    frame=  523 fps= 23 q=28.0 size=     512KiB time=00:00:21.84 bitrate= 192.0kbits/s dup=0 drop=25 speed=0.97x elapsed=0:00:22.51    frame=  536 fps= 23 q=28.0 size=     512KiB time=00:00:22.36 bitrate= 187.6kbits/s dup=0 drop=25 speed=0.972x elapsed=0:00:23.01    frame=  548 fps= 23 q=28.0 size=     512KiB time=00:00:22.84 bitrate= 183.6kbits/s dup=0 drop=25 speed=0.971x elapsed=0:00:23.51    frame=  560 fps= 23 q=28.0 size=     512KiB time=00:00:23.36 bitrate= 179.6kbits/s dup=0 drop=25 speed=0.973x elapsed=0:00:24.01    frame=  573 fps= 23 q=28.0 size=     512KiB time=00:00:23.84 bitrate= 175.9kbits/s dup=0 drop=25 speed=0.972x elapsed=0:00:24.51    frame=  586 fps= 23 q=28.0 size=     512KiB time=00:00:24.40 bitrate= 171.9kbits/s dup=0 drop=25 speed=0.975x elapsed=0:00:25.01    frame=  598 fps= 23 q=28.0 size=     512KiB time=00:00:24.84 bitrate= 168.9kbits/s dup=0 drop=25 speed=0.973x elapsed=0:00:25.51    frame=  610 fps= 23 q=28.0 size=     512KiB time=00:00:25.32 bitrate= 165.7kbits/s dup=0 drop=25 speed=0.973x elapsed=0:00:26.01    frame=  623 fps= 23 q=28.0 size=     512KiB time=00:00:25.88 bitrate= 162.1kbits/s dup=0 drop=25 speed=0.976x elapsed=0:00:26.51    frame=  636 fps= 24 q=28.0 size=    1024KiB time=00:00:26.40 bitrate= 317.8kbits/s dup=0 drop=25 speed=0.977x elapsed=0:00:27.01    frame=  648 fps= 24 q=28.0 size=    1024KiB time=00:00:26.84 bitrate= 312.5kbits/s dup=0 drop=25 speed=0.975x elapsed=0:00:27.51    frame=  661 fps= 24 q=28.0 size=    1024KiB time=00:00:27.40 bitrate= 306.2kbits/s dup=0 drop=25 speed=0.978x elapsed=0:00:28.01    frame=  673 fps= 24 q=28.0 size=    1024KiB time=00:00:27.88 bitrate= 300.9kbits/s dup=0 drop=25 speed=0.978x elapsed=0:00:28.51    frame=  685 fps= 24 q=28.0 size=    1024KiB time=00:00:28.36 bitrate= 295.8kbits/s dup=0 drop=25 speed=0.977x elapsed=0:00:29.01    frame=  697 fps= 24 q=28.0 size=    1024KiB time=00:00:28.80 bitrate= 291.3kbits/s dup=0 drop=25 speed=0.976x elapsed=0:00:29.51    frame=  711 fps= 24 q=28.0 size=    1024KiB time=00:00:29.36 bitrate= 285.7kbits/s dup=0 drop=25 speed=0.978x elapsed=0:00:30.01    frame=  723 fps= 24 q=28.0 size=    1024KiB time=00:00:29.84 bitrate= 281.1kbits/s dup=0 drop=25 speed=0.978x elapsed=0:00:30.52    frame=  736 fps= 24 q=28.0 size=    1024KiB time=00:00:30.40 bitrate= 275.9kbits/s dup=0 drop=25 speed=0.98x elapsed=0:00:31.02    frame=  748 fps= 24 q=28.0 size=    1024KiB time=00:00:30.84 bitrate= 272.0kbits/s dup=0 drop=25 speed=0.978x elapsed=0:00:31.52    frame=  761 fps= 24 q=28.0 size=    1024KiB time=00:00:31.36 bitrate= 267.5kbits/s dup=0 drop=25 speed=0.979x elapsed=0:00:32.02    frame=  773 fps= 24 q=28.0 size=    1024KiB time=00:00:31.84 bitrate= 263.5kbits/s dup=0 drop=25 speed=0.979x elapsed=0:00:32.52    frame=  785 fps= 24 q=28.0 size=    1024KiB time=00:00:32.32 bitrate= 259.5kbits/s dup=0 drop=25 speed=0.979x elapsed=0:00:33.02    frame=  798 fps= 24 q=28.0 size=    1024KiB time=00:00:32.84 bitrate= 255.4kbits/s dup=0 drop=25 speed=0.98x elapsed=0:00:33.52    frame=  811 fps= 24 q=28.0 size=    1024KiB time=00:00:33.36 bitrate= 251.5kbits/s dup=0 drop=25 speed=0.98x elapsed=0:00:34.02    frame=  823 fps= 24 q=28.0 size=    1024KiB time=00:00:33.88 bitrate= 247.6kbits/s dup=0 drop=25 speed=0.981x elapsed=0:00:34.52    frame=  836 fps= 24 q=28.0 size=    1024KiB time=00:00:34.40 bitrate= 243.9kbits/s dup=0 drop=25 speed=0.982x elapsed=0:00:35.02    frame=  848 fps= 24 q=28.0 size=    1024KiB time=00:00:34.88 bitrate= 240.5kbits/s dup=0 drop=25 speed=0.982x elapsed=0:00:35.52    frame=  861 fps= 24 q=28.0 size=    1024KiB time=00:00:35.36 bitrate= 237.2kbits/s dup=0 drop=25 speed=0.981x elapsed=0:00:36.02    frame=  873 fps= 24 q=28.0 size=    1024KiB time=00:00:35.84 bitrate= 234.1kbits/s dup=0 drop=25 speed=0.981x elapsed=0:00:36.52    frame=  886 fps= 24 q=28.0 size=    1280KiB time=00:00:36.40 bitrate= 288.1kbits/s dup=0 drop=25 speed=0.983x elapsed=0:00:37.02    frame=  898 fps= 24 q=28.0 size=    1280KiB time=00:00:36.88 bitrate= 284.3kbits/s dup=0 drop=25 speed=0.983x elapsed=0:00:37.52    frame=  911 fps= 24 q=28.0 size=    1280KiB time=00:00:37.36 bitrate= 280.7kbits/s dup=0 drop=25 speed=0.982x elapsed=0:00:38.02    frame=  923 fps= 24 q=28.0 size=    1280KiB time=00:00:37.88 bitrate= 276.8kbits/s dup=0 drop=25 speed=0.983x elapsed=0:00:38.52    frame=  936 fps= 24 q=28.0 size=    1280KiB time=00:00:38.36 bitrate= 273.4kbits/s dup=0 drop=25 speed=0.983x elapsed=0:00:39.02    frame=  948 fps= 24 q=28.0 size=    1280KiB time=00:00:38.88 bitrate= 269.7kbits/s dup=0 drop=25 speed=0.984x elapsed=0:00:39.52    frame=  961 fps= 24 q=28.0 size=    1280KiB time=00:00:39.36 bitrate= 266.4kbits/s dup=0 drop=25 speed=0.983x elapsed=0:00:40.02    frame=  973 fps= 24 q=28.0 size=    1280KiB time=00:00:39.84 bitrate= 263.2kbits/s dup=0 drop=25 speed=0.983x elapsed=0:00:40.53    frame=  986 fps= 24 q=28.0 size=    1280KiB time=00:00:40.36 bitrate= 259.8kbits/s dup=0 drop=25 speed=0.984x elapsed=0:00:41.03    frame=  998 fps= 24 q=28.0 size=    1280KiB time=00:00:40.88 bitrate= 256.5kbits/s dup=0 drop=25 speed=0.984x elapsed=0:00:41.53    frame= 1011 fps= 24 q=28.0 size=    1280KiB time=00:00:41.40 bitrate= 253.3kbits/s dup=0 drop=25 speed=0.985x elapsed=0:00:42.03    frame= 1023 fps= 24 q=28.0 size=    1280KiB time=00:00:41.88 bitrate= 250.4kbits/s dup=0 drop=25 speed=0.985x elapsed=0:00:42.53    frame= 1036 fps= 24 q=28.0 size=    1280KiB time=00:00:42.36 bitrate= 247.5kbits/s dup=0 drop=25 speed=0.984x elapsed=0:00:43.03    frame= 1048 fps= 24 q=28.0 size=    1280KiB time=00:00:42.84 bitrate= 244.8kbits/s dup=0 drop=25 speed=0.984x elapsed=0:00:43.53    frame= 1061 fps= 24 q=28.0 size=    1280KiB time=00:00:43.36 bitrate= 241.8kbits/s dup=0 drop=25 speed=0.985x elapsed=0:00:44.03    frame= 1073 fps= 24 q=28.0 size=    1280KiB time=00:00:43.92 bitrate= 238.7kbits/s dup=0 drop=25 speed=0.986x elapsed=0:00:44.53    frame= 1086 fps= 24 q=28.0 size=    1280KiB time=00:00:44.36 bitrate= 236.4kbits/s dup=0 drop=25 speed=0.985x elapsed=0:00:45.03    frame= 1099 fps= 24 q=28.0 size=    1280KiB time=00:00:44.88 bitrate= 233.6kbits/s dup=0 drop=25 speed=0.986x elapsed=0:00:45.53    frame= 1111 fps= 24 q=28.0 size=    1280KiB time=00:00:45.36 bitrate= 231.2kbits/s dup=0 drop=25 speed=0.985x elapsed=0:00:46.03    frame= 1123 fps= 24 q=28.0 size=    1280KiB time=00:00:45.88 bitrate= 228.5kbits/s dup=0 drop=25 speed=0.986x elapsed=0:00:46.53    frame= 1136 fps= 24 q=28.0 size=    1536KiB time=00:00:46.36 bitrate= 271.4kbits/s dup=0 drop=25 speed=0.986x elapsed=0:00:47.03    frame= 1149 fps= 24 q=28.0 size=    1536KiB time=00:00:46.92 bitrate= 268.2kbits/s dup=0 drop=25 speed=0.987x elapsed=0:00:47.53    frame= 1161 fps= 24 q=28.0 size=    1536KiB time=00:00:47.36 bitrate= 265.7kbits/s dup=0 drop=25 speed=0.986x elapsed=0:00:48.03    frame= 1173 fps= 24 q=28.0 size=    1536KiB time=00:00:47.84 bitrate= 263.0kbits/s dup=0 drop=25 speed=0.986x elapsed=0:00:48.53    frame= 1186 fps= 24 q=28.0 size=    1536KiB time=00:00:48.36 bitrate= 260.2kbits/s dup=0 drop=25 speed=0.986x elapsed=0:00:49.03    frame= 1199 fps= 24 q=28.0 size=    1536KiB time=00:00:48.92 bitrate= 257.2kbits/s dup=0 drop=25 speed=0.988x elapsed=0:00:49.53    frame= 1210 fps= 24 q=28.0 size=    1536KiB time=00:00:49.36 bitrate= 254.9kbits/s dup=0 drop=25 speed=0.986x elapsed=0:00:50.03    frame= 1224 fps= 24 q=28.0 size=    1536KiB time=00:00:49.92 bitrate= 252.1kbits/s dup=0 drop=25 speed=0.988x elapsed=0:00:50.53    frame= 1236 fps= 24 q=28.0 size=    1536KiB time=00:00:50.36 bitrate= 249.9kbits/s dup=0 drop=25 speed=0.987x elapsed=0:00:51.03    frame= 1249 fps= 24 q=28.0 size=    1536KiB time=00:00:50.92 bitrate= 247.1kbits/s dup=0 drop=25 speed=0.988x elapsed=0:00:51.53    frame= 1261 fps= 24 q=28.0 size=    1792KiB time=00:00:51.40 bitrate= 285.6kbits/s dup=0 drop=25 speed=0.988x elapsed=0:00:52.03    frame= 1274 fps= 24 q=28.0 size=    1792KiB time=00:00:51.92 bitrate= 282.7kbits/s dup=0 drop=25 speed=0.988x elapsed=0:00:52.53    frame= 1286 fps= 24 q=28.0 size=    1792KiB time=00:00:52.36 bitrate= 280.4kbits/s dup=0 drop=25 speed=0.987x elapsed=0:00:53.04    frame= 1298 fps= 24 q=28.0 size=    1792KiB time=00:00:52.84 bitrate= 277.8kbits/s dup=0 drop=25 speed=0.987x elapsed=0:00:53.54    frame= 1311 fps= 24 q=28.0 size=    1792KiB time=00:00:53.36 bitrate= 275.1kbits/s dup=0 drop=25 speed=0.987x elapsed=0:00:54.04    frame= 1324 fps= 24 q=28.0 size=    1792KiB time=00:00:53.88 bitrate= 272.5kbits/s dup=0 drop=25 speed=0.988x elapsed=0:00:54.54    frame= 1336 fps= 24 q=28.0 size=    1792KiB time=00:00:54.36 bitrate= 270.1kbits/s dup=0 drop=25 speed=0.988x elapsed=0:00:55.04    frame= 1349 fps= 24 q=28.0 size=    1792KiB time=00:00:54.88 bitrate= 267.5kbits/s dup=0 drop=25 speed=0.988x elapsed=0:00:55.54    frame= 1361 fps= 24 q=28.0 size=    1792KiB time=00:00:55.36 bitrate= 265.2kbits/s dup=0 drop=25 speed=0.988x elapsed=0:00:56.04    frame= 1374 fps= 24 q=28.0 size=    1792KiB time=00:00:55.88 bitrate= 262.7kbits/s dup=0 drop=25 speed=0.988x elapsed=0:00:56.54    frame= 1386 fps= 24 q=28.0 size=    2048KiB time=00:00:56.40 bitrate= 297.5kbits/s dup=0 drop=25 speed=0.989x elapsed=0:00:57.04    frame= 1399 fps= 24 q=28.0 size=    2048KiB time=00:00:56.92 bitrate= 294.8kbits/s dup=0 drop=25 speed=0.989x elapsed=0:00:57.54    frame= 1411 fps= 24 q=28.0 size=    2048KiB time=00:00:57.40 bitrate= 292.3kbits/s dup=0 drop=25 speed=0.989x elapsed=0:00:58.04    frame= 1424 fps= 24 q=28.0 size=    2048KiB time=00:00:57.92 bitrate= 289.7kbits/s dup=0 drop=25 speed=0.989x elapsed=0:00:58.54    frame= 1436 fps= 24 q=28.0 size=    2048KiB time=00:00:58.36 bitrate= 287.5kbits/s dup=0 drop=25 speed=0.988x elapsed=0:00:59.04    [out#0/matroska @ 0x563ce7789500] Error writing trailer: Immediate exit requested
[out#0/matroska @ 0x563ce7789500] Error closing file: Immediate exit requested
[out#0/matroska @ 0x563ce7789500] video:2607KiB audio:0KiB subtitle:0KiB other streams:0KiB global headers:0KiB muxing overhead: unknown
frame= 1468 fps= 25 q=-1.0 Lsize=    2048KiB time=00:00:59.64 bitrate= 281.3kbits/s dup=0 drop=25 speed=   1x elapsed=0:00:59.61    
[libx264 @ 0x563ce778af00] frame I:7     Avg QP:10.86  size:173382
[libx264 @ 0x563ce778af00] frame P:370   Avg QP:17.27  size:  2152
[libx264 @ 0x563ce778af00] frame B:1091  Avg QP:24.81  size:   604
[libx264 @ 0x563ce778af00] consecutive B-frames:  0.7%  0.5%  0.4% 98.4%
[libx264 @ 0x563ce778af00] mb I  I16..4: 83.0%  1.4% 15.6%
[libx264 @ 0x563ce778af00] mb P  I16..4:  0.5%  0.1%  0.0%  P16..4:  0.3%  0.2%  0.1%  0.0%  0.0%    skip:98.7%
[libx264 @ 0x563ce778af00] mb B  I16..4:  0.3%  0.0%  0.0%  B16..8:  0.3%  0.1%  0.0%  direct: 0.0%  skip:99.2%  L0:45.5% L1:48.9% BI: 5.6%
[libx264 @ 0x563ce778af00] 8x8 transform intra:2.5% inter:2.8%
[libx264 @ 0x563ce778af00] coded y,uvDC,uvAC intra: 13.3% 22.6% 18.9% inter: 0.1% 0.1% 0.0%
[libx264 @ 0x563ce778af00] i16 v,h,dc,p: 53% 45%  2%  0%
[libx264 @ 0x563ce778af00] i8 v,h,dc,ddl,ddr,vr,hd,vl,hu: 12% 18% 64%  0%  1%  0%  3%  0%  2%
[libx264 @ 0x563ce778af00] i4 v,h,dc,ddl,ddr,vr,hd,vl,hu: 27% 38% 19%  1%  2%  2%  5%  2%  5%
[libx264 @ 0x563ce778af00] i8c dc,h,v,p: 49% 45%  6%  1%
[libx264 @ 0x563ce778af00] Weighted P-Frames: Y:0.0% UV:0.0%
[libx264 @ 0x563ce778af00] kb/s:357.22
Exiting normally, received signal 2.
